<?xml version="1.0" encoding="UTF-8" standalone="no"?>
<!DOCTYPE svg PUBLIC "-//W3C//DTD SVG 1.1//EN" "http://www.w3.org/Graphics/SVG/1.1/DTD/svg11.dtd">
<!-- Created with Vectornator (http://vectornator.io/) -->
<svg height="100%" stroke-miterlimit="10" style="fill-rule:nonzero;clip-rule:evenodd;stroke-linecap:round;stroke-linejoin:round;" version="1.1" viewBox="31 31 450 450" width="100%" xml:space="preserve" xmlns="http://www.w3.org/2000/svg" xmlns:xlink="http://www.w3.org/1999/xlink">
<defs/>
<g id="图层-1">
<path d="M71.7162 480.951C245.442 476.178 386.182 360.591 424.806 237.032C433.072 210.6 428.265 188.187 407.178 174.42C397.044 167.804 393.006 171.672 385.839 175.233C380.422 177.925 373.922 182.241 379.097 187.137C382.615 190.465 380.668 194.9 379.363 197.573C375.125 206.224 355.105 205.326 334.648 195.56C314.192 185.793 301.05 170.855 305.297 162.204C308.269 156.139 318.139 154.402 332.173 157.868C339.807 159.753 341.653 156.992 343.845 153.691C347.933 147.536 345.196 145.675 341.891 144.204C333.356 140.404 321.576 138.261 309.985 137.735C145.144 133.229 267.528 285.847 51.8973 427.303C33.8726 436.816 7.71038 482.711 71.7162 480.951Z" fill="#f0322d" fill-rule="nonzero" opacity="1" stroke="none"/>
<path d="M356.231 185.86C360.69 183.864 365.088 181.629 369.434 179.183C376.947 174.899 384.181 170.153 391.092 164.973C433.422 133.468 465.071 92.5206 477.548 73.7696C481.013 68.5621 482.62 57.4866 478.761 52.105C469.108 38.6429 449.136 31.9566 431.287 31.081C423.477 30.6979 415.771 31.6629 408.83 34.2076C405.923 35.2737 400.017 38.9675 398.218 50.6922C391.564 94.0823 368.434 127.479 353.408 149.769C349.45 155.652 345.898 160.541 342.996 164.35C341.599 166.185 338.313 170.011 335.256 172.935C332.41 175.658 332.712 180.687 336.496 183.727C341.343 187.62 351.538 187.958 356.231 185.86Z" fill="#6ec83c" fill-rule="nonzero" opacity="1" stroke="none"/>
</g>
</svg>
