<svg t="1783999692339" class="icon" viewBox="0 0 1024 1024" version="1.1" xmlns="http://www.w3.org/2000/svg" p-id="5331" data-spm-anchor-id="a313x.manage_type_myprojects.0.i7.523a3a81XmkzVf" width="256" height="256"><path d="M84.36904044 227.22278706A190.73227307 190.73227307 0 0 1 275.1013135 36.490514h594.02546582v95.18721319h-45.44652659V799.77745291A190.73227307 190.73227307 0 0 1 632.94797966 990.50972597h-178.92333308v-95.18721319H632.94797966a95.54505986 95.54505986 0 0 0 95.54505986-95.54505987V131.67772719H275.1013135a95.54505986 95.54505986 0 0 0-95.54505986 95.54505987V680.25666643h-95.1872132V227.22278706z" fill="#8a8a8a" p-id="5332" data-spm-anchor-id="a313x.manage_type_myprojects.0.i3.523a3a81XmkzVf" class=""></path><path d="M824.03809939 227.58063373v-47.95145328a47.95145327 47.95145327 0 1 1 47.95145327 47.95145328h-47.95145327z m47.95145327 95.18721319a143.13866646 143.13866646 0 1 0-143.13866646-143.13866647v143.13866647h143.13866646zM12.79970722 680.61451308H544.20200645v95.1872132H114.85757639A167.18596243 167.18596243 0 0 0 275.1013135 895.32251278h357.84666616v95.18721319H275.1013135c-144.85633046 0-262.30160629-117.44527583-262.30160628-262.30160629v-47.5936066z" fill="#8a8a8a" p-id="5333" data-spm-anchor-id="a313x.manage_type_myprojects.0.i4.523a3a81XmkzVf" class=""></path><path d="M544.55985311 728.20811968v78.72626656A88.38812654 88.38812654 0 0 0 632.94797966 895.32251278v95.18721319a183.57533974 183.57533974 0 0 1-183.57533974-183.57533973v-78.72626656h95.18721319z" fill="#8a8a8a" p-id="5334" data-spm-anchor-id="a313x.manage_type_myprojects.0.i5.523a3a81XmkzVf" class=""></path><path d="M608.97225303 286.62533364A47.59360659 47.59360659 0 0 1 561.37864643 334.21894024h-214.70799969a47.59360659 47.59360659 0 0 1 0-95.18721319h214.70799969c26.28980138 0 47.59360659 21.30380524 47.5936066 47.59360659zM608.97225303 501.33333334A47.59360659 47.59360659 0 0 1 561.37864643 548.92693993h-214.70799969a47.59360659 47.59360659 0 0 1 0-95.18721318h214.70799969c26.28980138 0 47.59360659 21.30380524 47.5936066 47.59360659z" fill="#0493dc" p-id="5335"></path></svg>